<?xml version="1.0" standalone="no"?>
<!DOCTYPE svg PUBLIC "-//W3C//DTD SVG 20010904//EN"
 "http://www.w3.org/TR/2001/REC-SVG-20010904/DTD/svg10.dtd">
<svg version="1.0" xmlns="http://www.w3.org/2000/svg"
 width="1000.000000pt" height="1000.000000pt" viewBox="0 0 1000.000000 1000.000000"
 preserveAspectRatio="xMidYMid meet">
<metadata>
Created by potrace 1.14, written by Peter Selinger 2001-2017
</metadata>
<g transform="translate(0.000000,1000.000000) scale(0.100000,-0.100000)"
fill="#000000" stroke="none">
<path d="M4690 9723 c-488 -34 -995 -150 -1445 -328 -152 -60 -447 -202 -590
-284 -646 -370 -1199 -890 -1608 -1512 -412 -627 -660 -1315 -753 -2089 -21
-180 -30 -663 -15 -845 77 -947 389 -1778 942 -2515 112 -149 124 -164 110
-133 -33 67 4 167 69 190 37 13 99 9 132 -8 77 -41 76 -194 -2 -234 -34 -18
-112 -20 -142 -4 -34 18 -19 -3 88 -123 547 -610 1255 -1074 2037 -1332 294
-98 622 -171 952 -212 175 -22 719 -31 909 -15 917 77 1774 405 2496 954 338
258 656 579 922 931 64 85 87 123 82 135 -14 28 -16 128 -4 151 18 33 70 60
117 60 l43 0 60 102 c34 57 103 189 155 293 268 543 422 1099 475 1720 11 128
12 614 1 730 l-6 69 -35 7 c-20 4 -46 21 -62 38 -23 26 -28 40 -28 87 0 67 19
108 60 126 16 7 30 20 30 30 0 37 -52 293 -91 448 -161 647 -469 1267 -887
1789 -163 202 -158 197 -174 183 -26 -21 -100 -26 -140 -9 -68 28 -96 115 -63
192 l17 40 -94 88 c-210 199 -486 413 -741 572 -184 116 -560 306 -757 382
-466 182 -891 280 -1395 323 -108 9 -553 11 -665 3z m2473 -1305 c55 -29 77
-150 36 -202 -62 -79 -193 -71 -236 14 -27 53 -10 145 31 180 35 28 122 32
169 8z m347 -7 c36 -25 50 -58 50 -118 0 -44 -5 -58 -31 -87 -50 -58 -141 -61
-201 -7 -53 48 -50 164 6 211 39 32 131 32 176 1z m322 13 c9 -3 29 -19 43
-35 20 -25 25 -41 25 -86 0 -66 -21 -106 -66 -128 -98 -46 -204 18 -204 123 0
111 80 160 202 126z m-2415 -20 c58 -38 71 -158 23 -209 -51 -54 -145 -57
-202 -6 -27 24 -32 36 -36 87 -3 50 0 64 20 94 13 20 39 40 58 47 40 15 105 9
137 -13z m302 16 c131 -37 127 -241 -5 -266 -111 -21 -191 60 -170 170 9 47
33 74 81 91 49 17 52 17 94 5z m392 -15 c37 -20 63 -87 54 -144 -12 -79 -82
-123 -172 -106 -84 15 -124 110 -85 199 12 25 22 46 24 46 2 0 21 7 43 15 43
16 92 12 136 -10z m352 -2 c71 -36 75 -179 6 -227 -52 -36 -138 -32 -182 8
-35 32 -51 95 -37 144 23 89 121 123 213 75z m350 5 c54 -28 74 -135 37 -196
-35 -57 -118 -78 -184 -47 -45 22 -66 62 -66 128 0 45 5 61 26 86 14 17 40 35
57 40 34 10 101 5 130 -11z m1374 -4 c37 -23 54 -59 55 -112 0 -63 -22 -105
-66 -126 -127 -60 -247 56 -192 187 29 70 134 96 203 51z m-4850 -4 c72 -43
85 -153 25 -213 -38 -38 -120 -49 -170 -23 -89 46 -80 208 13 246 36 15 99 11
132 -10z m329 4 c43 -21 64 -59 64 -119 0 -94 -52 -141 -147 -133 -61 5 -96
31 -114 85 -12 39 -5 97 17 131 32 49 118 65 180 36z m362 -11 c60 -44 66
-146 13 -205 -23 -26 -37 -32 -83 -36 -96 -8 -148 39 -148 133 0 59 20 98 62
119 42 21 120 16 156 -11z m335 13 c88 -36 99 -179 18 -233 -63 -42 -169 -22
-202 38 -17 33 -15 109 5 147 29 56 110 77 179 48z m377 -1 c39 -20 60 -63 60
-120 0 -85 -52 -135 -140 -135 -84 0 -130 48 -130 139 0 39 6 56 27 81 14 18
36 36 47 40 34 14 105 11 136 -5z m-16 -349 c51 -21 76 -60 76 -118 0 -93 -46
-138 -140 -138 -43 0 -55 5 -85 33 -29 26 -37 41 -41 82 -12 113 85 185 190
141z m713 -29 c29 -32 33 -44 33 -89 0 -59 -24 -109 -61 -129 -34 -18 -123
-15 -153 5 -83 54 -71 207 19 247 11 5 44 7 74 5 48 -3 58 -7 88 -39z m-33
-332 c43 -20 66 -63 66 -120 0 -88 -47 -135 -135 -135 -88 0 -135 47 -135 135
0 26 8 60 17 76 33 55 120 75 187 44z m-642 -24 c31 -28 33 -33 33 -99 0 -61
-3 -74 -24 -96 -45 -48 -131 -56 -190 -18 -48 32 -64 116 -35 178 22 46 57 63
126 64 50 0 62 -4 90 -29z m631 -335 c52 -22 70 -50 75 -114 3 -48 0 -63 -20
-92 -28 -42 -77 -62 -133 -54 -82 12 -120 62 -113 150 5 59 25 89 73 110 39
17 78 17 118 0z m-653 -11 c16 -9 36 -29 45 -45 19 -37 19 -113 0 -149 -29
-58 -131 -79 -193 -41 -83 51 -78 193 9 237 33 17 104 16 139 -2z m-16 -349
c51 -21 76 -60 76 -118 0 -91 -46 -138 -135 -138 -81 0 -122 37 -131 118 -12
110 86 181 190 138z m682 -12 c19 -9 41 -29 49 -45 19 -36 19 -112 0 -149 -20
-39 -63 -60 -120 -60 -57 0 -100 21 -120 60 -19 37 -19 113 -1 149 29 56 123
78 192 45z m-644 -383 c31 -28 33 -33 33 -99 0 -61 -3 -74 -24 -96 -45 -48
-131 -56 -190 -18 -48 32 -64 116 -35 178 22 46 57 63 126 64 50 0 62 -4 90
-29z m648 14 c39 -20 60 -63 60 -120 0 -57 -21 -100 -60 -120 -37 -19 -113
-19 -150 0 -39 20 -60 63 -60 120 0 56 21 99 58 119 35 20 115 20 152 1z
m-686 -379 c51 -21 76 -60 76 -120 0 -60 -27 -112 -66 -126 -37 -15 -111 -12
-143 5 -61 31 -79 143 -34 204 34 45 108 62 167 37z m696 -15 c39 -28 51 -60
47 -123 -2 -44 -9 -64 -27 -83 -51 -55 -145 -57 -203 -5 -30 27 -32 32 -32 98
0 61 3 74 24 96 45 48 138 56 191 17z m-670 -360 c39 -28 51 -60 47 -125 -3
-51 -8 -63 -35 -87 -27 -25 -41 -29 -88 -29 -68 0 -106 19 -128 64 -39 83 -2
177 79 199 33 9 98 -2 125 -22z m670 0 c39 -28 51 -60 47 -123 -2 -44 -9 -64
-27 -83 -51 -55 -145 -57 -203 -5 -30 27 -32 32 -32 98 0 61 3 74 24 96 45 48
138 56 191 17z m-680 -366 c39 -20 60 -63 60 -120 0 -88 -60 -142 -146 -132
-57 6 -92 30 -111 75 -27 66 -1 149 58 179 33 17 104 16 139 -2z m670 0 c39
-20 60 -63 60 -120 0 -57 -21 -100 -60 -120 -37 -19 -113 -19 -150 0 -39 20
-60 63 -60 120 0 56 21 99 58 119 35 20 115 20 152 1z m4226 -131 c45 -21 64
-60 64 -128 0 -44 -5 -60 -26 -85 -60 -71 -196 -57 -230 24 -55 131 65 249
192 189z m-4902 -239 c43 -20 66 -63 66 -120 0 -94 -52 -141 -147 -133 -38 3
-60 11 -78 28 -48 45 -57 130 -20 187 32 49 118 67 179 38z m670 0 c43 -20 66
-63 66 -120 0 -88 -47 -135 -135 -135 -88 0 -135 47 -135 135 0 26 8 60 17 76
33 55 120 75 187 44z m4018 -56 c32 -17 58 -70 58 -120 0 -126 -147 -184 -237
-94 -30 30 -33 38 -33 93 0 50 4 66 26 91 14 17 40 35 57 40 35 11 99 6 129
-10z m-237 -252 c57 -57 57 -153 0 -207 -38 -36 -128 -40 -175 -8 -62 42 -76
143 -28 204 27 33 51 43 117 43 47 1 57 -3 86 -32z m-4435 -76 c39 -28 51 -60
47 -125 -3 -51 -8 -63 -35 -87 -27 -25 -41 -29 -88 -29 -69 0 -107 19 -129 66
-21 45 -16 115 12 153 39 51 137 63 193 22z m669 2 c40 -30 52 -61 48 -125 -2
-44 -9 -64 -27 -83 -51 -55 -145 -57 -203 -5 -30 27 -32 32 -32 98 0 77 14
103 70 129 39 17 110 11 144 -14z m3455 -98 c49 -32 66 -128 33 -192 -33 -62
-142 -79 -208 -32 -51 36 -63 136 -24 195 34 53 139 68 199 29z m-350 -139
c53 -22 76 -60 76 -123 0 -72 -22 -108 -77 -129 -109 -42 -203 30 -190 144 6
55 34 93 78 109 45 16 73 16 113 -1z m-3767 -159 c23 -22 28 -37 31 -92 4 -63
3 -66 -30 -99 -42 -42 -91 -53 -149 -35 -58 19 -84 57 -84 123 0 99 42 139
143 133 52 -2 67 -7 89 -30z m653 18 c16 -9 36 -29 45 -45 19 -37 19 -113 0
-149 -28 -55 -122 -77 -189 -46 -43 20 -66 63 -66 120 0 56 21 99 58 119 35
20 115 20 152 1z m375 -18 c89 -89 31 -237 -94 -237 -108 0 -168 93 -126 198
21 51 57 71 129 72 52 0 61 -3 91 -33z m334 17 c36 -21 50 -45 57 -97 13 -90
-46 -157 -137 -157 -125 0 -183 148 -94 237 30 30 39 33 90 33 34 0 68 -6 84
-16z m352 0 c59 -30 78 -133 36 -195 -28 -41 -60 -59 -110 -59 -78 0 -131 43
-137 110 -6 69 0 92 34 126 31 31 40 34 90 34 32 0 70 -7 87 -16z m349 1 c69
-36 82 -158 23 -217 -59 -58 -183 -45 -218 23 -34 65 -7 177 48 199 35 14 115
11 147 -5z m377 -18 c34 -33 44 -126 20 -174 -37 -70 -160 -84 -219 -25 -58
57 -49 173 16 214 47 29 147 22 183 -15z m339 -1 c31 -31 34 -39 34 -92 0 -75
-24 -117 -75 -134 -95 -31 -182 15 -192 103 -12 103 37 157 141 157 53 0 61
-3 92 -34z m350 0 c31 -31 34 -40 34 -90 0 -98 -45 -146 -137 -146 -100 1
-158 95 -122 199 17 47 61 71 133 71 53 0 61 -3 92 -34z m350 0 c34 -34 40
-56 35 -121 -6 -71 -58 -115 -136 -115 -104 0 -166 107 -119 206 22 46 57 63
128 64 53 0 61 -3 92 -34z m-195 -292 c76 -39 77 -174 3 -233 -25 -20 -38 -22
-93 -19 -56 4 -67 8 -91 35 -58 65 -42 180 31 216 43 21 111 22 150 1z m-2631
-69 c39 -20 60 -63 60 -120 0 -83 -52 -135 -135 -135 -83 0 -135 52 -135 135
0 56 21 99 58 119 35 20 115 20 152 1z m-710 -20 c16 -8 36 -25 44 -37 20 -29
21 -120 1 -157 -31 -61 -143 -79 -204 -34 -71 54 -57 201 23 233 34 14 105 11
136 -5z m3582 -223 c58 -57 48 -175 -18 -218 -30 -20 -119 -23 -153 -5 -64 35
-83 153 -34 211 35 42 57 50 121 47 44 -3 59 -9 84 -35z m-2878 -137 c43 -20
66 -63 66 -120 0 -88 -47 -135 -135 -135 -88 0 -135 47 -135 135 0 26 8 60 17
76 33 55 120 75 187 44z m-743 -28 c40 -27 61 -77 54 -131 -7 -52 -20 -73 -58
-96 -64 -39 -162 -19 -192 40 -19 38 -19 113 1 151 30 59 133 78 195 36z
m3758 -113 c78 -16 119 -108 85 -193 -14 -35 -26 -47 -62 -63 -91 -41 -184 4
-197 96 -18 115 57 183 174 160z m-3009 -239 c39 -20 60 -63 60 -120 0 -88
-47 -135 -135 -135 -88 0 -135 47 -135 135 0 56 21 99 58 119 35 20 115 20
152 1z m-857 -29 c46 -19 69 -49 74 -99 11 -98 -38 -157 -130 -157 -62 0 -105
23 -123 65 -53 128 55 244 179 191z m4119 -57 c32 -17 58 -70 58 -120 0 -126
-147 -184 -237 -94 -30 30 -33 38 -33 93 0 50 4 66 26 91 14 17 40 35 57 40
35 11 99 6 129 -10z m-3253 -286 c41 -31 52 -61 48 -127 -3 -51 -8 -63 -34
-86 -62 -56 -166 -46 -211 20 -20 29 -23 44 -20 92 5 63 23 91 73 115 39 17
110 11 144 -14z m-954 -46 c45 -45 54 -95 29 -155 -16 -39 -27 -50 -66 -66
-60 -25 -110 -16 -155 29 -30 30 -33 38 -33 95 0 57 3 65 34 96 31 31 39 34
96 34 57 0 65 -3 95 -33z m4414 7 c71 -60 57 -196 -24 -230 -133 -55 -249 64
-189 192 22 46 57 63 126 64 46 0 62 -5 87 -26z m-3469 -299 c39 -20 60 -63
60 -120 0 -83 -52 -135 -135 -135 -83 0 -135 52 -135 135 0 56 21 99 58 119
35 20 115 20 152 1z m-1179 -38 c40 -27 61 -77 54 -131 -7 -52 -20 -73 -58
-96 -64 -39 -162 -19 -192 40 -19 38 -19 113 1 151 30 59 133 78 195 36z
m1169 -302 c48 -25 70 -62 70 -119 0 -57 -24 -107 -61 -127 -34 -18 -123 -15
-153 5 -83 54 -70 209 19 246 32 14 94 11 125 -5z m-1465 -11 c87 -41 86 -198
-2 -239 -55 -26 -127 -16 -166 24 -29 29 -32 37 -32 95 0 55 4 68 25 91 14 15
34 31 45 35 33 14 95 11 130 -6z m-2073 -114 c11 0 35 -15 54 -34 31 -31 34
-39 34 -94 0 -74 -29 -116 -93 -133 -83 -22 -160 25 -172 105 -8 50 17 121 49
138 28 15 78 27 94 22 8 -2 23 -4 34 -4z m1707 -87 c33 -25 55 -92 46 -140 -4
-22 -20 -50 -41 -71 -33 -33 -36 -34 -99 -30 -85 5 -115 32 -123 107 -2 27 -2
61 2 74 7 30 51 74 79 81 42 9 109 -2 136 -21z m-1264 -37 c42 -18 65 -61 65
-121 0 -87 -47 -135 -132 -135 -47 0 -100 27 -117 58 -6 11 -13 37 -16 58 -15
113 89 186 200 140z m870 -66 c76 -71 40 -217 -58 -235 -113 -21 -192 59 -167
168 16 73 55 98 142 94 44 -3 64 -9 83 -27z m-404 -18 c25 -27 29 -41 29 -88
0 -68 -19 -106 -64 -128 -65 -31 -146 -13 -181 40 -27 41 -26 124 1 161 32 43
62 54 128 50 51 -3 63 -8 87 -35z m2641 -13 c32 -17 58 -70 58 -119 0 -90 -68
-148 -157 -136 -80 11 -113 51 -113 139 0 45 5 61 26 86 14 17 40 35 57 40 35
11 99 6 129 -10z"/>
</g>
</svg>
